{"title":"Blackthorn.2011.BRRip.XviD.AC3-PRESTiGE","uid":6841020,"size":1995406040,"categoryP":"video","categoryS":"movies","magnet":"?xt=urn:btih:d5c66d6ef3aca13765cb815cbed639fd54c15c24&amp;dn=Blackthorn.2011.BRRip.XviD.AC3-PRESTiGE&amp;tr=udp%3A%2F%2Ftracker.openbittorrent.com%3A80&amp;tr=udp%3A%2F%2Fopen.demonii.com%3A1337&amp;tr=udp%3A%2F%2Ftracker.coppersurfer.tk%3A6969&amp;tr=udp%3A%2F%2Fexodus.desync.com%3A6969","seeders":0,"leechers":0,"uploader":"sceneline","files":6,"time":1322164130,"description":"- &lt;a href=&quot;\nhttp://www.Speed.Cd&quot; rel=&quot;nofollow&quot; target=&quot;_NEW&quot;&gt;\nhttp://www.Speed.Cd&lt;/a&gt;      fast  and The Hottest Private Tracker on the net\n\n   signup is open now\n\nPlease Seed back to make the speed Faster!!!\n\n------------------nfo--------------------------\n-[pre][img]http://i824.photobucket.com/albums/zz161/akosipalos/BT-1.jpg[/img]\n\n*******************************************************************************\n                   Blackthorn.2011.BRRip.XviD.AC3-PRESTiGE\n*******************************************************************************\n\n\n[color=red]General[/color]\n\nComplete name                    : Blackthorn.2011.BRRip.XviD.AC3-PRESTiGE\nFormat                           : AVI\nFormat/Info                      : Audio Video Interleave\nFile size                        : 1.81 GiB\nDuration                         : 1h 42mn\nOverall bit rate                 : 2 530 Kbps\n\nEncoded by: [b][color=maroon]akosipalos[/color][/b]\n\nSOURCE: 720p.BluRay.x264.DTS-HDC Many THANKS &lt;a href=&quot;\nhttp://www.imdb.com/title/tt1629705/&quot; rel=&quot;nofollow&quot; target=&quot;_NEW&quot;&gt;\nhttp://www.imdb.com/title/tt1629705/&lt;/a&gt;\n\n\n[color=red]Video[/color]\n\nID                               : 0\nFormat                           : MPEG-4 Visual\nFormat profile                   : Advanced Simple@L5\nFormat settings, BVOP            : 2\nFormat settings, QPel            : No\nFormat settings, GMC             : No warppoints\nFormat settings, Matrix          : Default (H.263)\nCodec ID                         : XVID\nCodec ID/Hint                    : XviD\nDuration                         : 1h 42mn\nBit rate                         : 2 074 Kbps\nWidth                            : 720 pixels\nHeight                           : 304 pixels\nDisplay aspect ratio             : 2.35:1\nFrame rate                       : 24.000 fps\nColor space                      : YUV\nChroma subsampling               : 4:2:0\nBit depth                        : 8 bits\nScan type                        : Progressive\nCompression mode                 : Lossy\nBits/(Pixel*Frame)               : 0.395\nStream size                      : 1.48 GiB (82%)\nWriting library                  : XviD 1.2.1 (UTC 2008-12-04)\n\n[color=red]Audio[/color]\n\nID                               : 1\nFormat                           : AC-3\nFormat/Info                      : Audio Coding 3\nMode extension                   : CM (complete main)\nCodec ID                         : 2000\nDuration                         : 1h 42mn\nBit rate mode                    : Constant\nBit rate                         : 448 Kbps\nChannel(s)                       : 6 channels\nChannel positions                : Front: L C R, Side: L R, LFE\nSampling rate                    : 48.0 KHz\nBit depth                        : 16 bits\nCompression mode                 : Lossy\nStream size                      : 328 MiB (18%)\nAlignment                        : Aligned on interleaves\nInterleave, duration             : 64 ms (1.54 video frames)\nInterleave, preload duration     : 192 ms\n\n\n[color=red]Plot:[/color]\n\nIn Bolivia, Butch Cassidy (now calling himself James Blackthorne) pines for one last sight of home, \nan adventure that aligns him with a young robber and makes the duo a target for gangs and lawmen alike.\n\n\n[color=red]Cast:[/color]\n\nSam Shepard, Eduardo Noriega and Stephen Rea\n\n\n[color=red]Screens:[/color]\n\n[img]http://i824.photobucket.com/albums/zz161/akosipalos/1-148.png[/img]\n\n[img]http://i824.photobucket.com/albums/zz161/akosipalos/2-127.png[/img]\n\n[img]http://i824.photobucket.com/albums/zz161/akosipalos/3-127.png[/img]\n\n[img]http://i824.photobucket.com/albums/zz161/akosipalos/4-122.png[/img]\n\n\n[color=red]Release Notes:[/color]\n\nWE DONT RELEASE EVERYTHING TO OTHERS SITES YOU WANT MORE OF OUR STUFF COME FIND US AT .......\n\nWE ARE LOOKING FOR SUPPLIERS BLURAY CAM R5 PRE RETAIL DVD GOT SOMETHING WE MIGHT LIKE WHEN YOU FIND US TELL US.......\n\n\n\nENCODER'S - ANYTHING AT ALL EMAIL US AT..... &lt;a class=&quot;__cf_email__&quot; href=&quot;/cdn-cgi/l/email-protection&quot; data-cfemail=&quot;4b3b392e383f222c2e0b233e3823262a222765262e&quot;&gt;[email&amp;#160;protected]&lt;/a&gt;&lt;script cf-hash='f9e31' type=&quot;text/javascript&quot;&gt;\n/* &lt;![CDATA[ */!function(){try{var t=&quot;currentScript&quot;in document?document.currentScript:function(){for(var t=document.getElementsByTagName(&quot;script&quot;),e=t.length;e--;)if(t[e].getAttribute(&quot;cf-hash&quot;))return t[e]}();if(t&amp;&amp;t.previousSibling){var e,r,n,i,c=t.previousSibling,a=c.getAttribute(&quot;data-cfemail&quot;);if(a){for(e=&quot;&quot;,r=parseInt(a.substr(0,2),16),n=2;a.length-n;n+=2)i=parseInt(a.substr(n,2),16)^r,e+=String.fromCharCode(i);e=document.createTextNode(e),c.parentNode.replaceChild(e,c)}}}catch(u){}}();/* ]]&gt; */&lt;/script&gt;\n\n** ** ** ** ** ** ** ** **\n\nPRESTiGE is the level of respect at which one is regarded by others....RIzE Above Or Sink Below...\n\n\n-------------------------------------------------------------------------------\n                                 GREETZ:\n-------------------------------------------------------------------------------\n\n\n[b]| Twisted | Bigguy | CTFX | Whitestag13 | Jungledave | PA4U2C | mtyy | floridajoe | marsby | cld | Stortrapp | Stoner |\nRock | Ulap | rizal | mannilim | musikera | centserick2 | AMB | RiZAL Team RG | rock3r | canislupus | sickie | fun2knytz and\nTo All Encoders Past And Present...[/b]\n\n\n[img]http://i824.photobucket.com/albums/zz161/akosipalos/PRESTiGE-3.png[/img]\n\n\n[b][color=red]PRESTiGE[/color] is the level of respect at which one is regarded by others....RIzE Above Or Sink Below...[/b]\n\n\n-------------------------------------------------------------------------------\nGenerated with Cool NFO Creator - http://fly.to/coolbeans\n-------------------------------------------------------------------------------\n","torrent":{"xt":"urn:btih:d5c66d6ef3aca13765cb815cbed639fd54c15c24","amp;dn":"Blackthorn.2011.BRRip.XviD.AC3-PRESTiGE","amp;tr":["udp%3A%2F%2Ftracker.openbittorrent.com%3A80","udp%3A%2F%2Fopen.demonii.com%3A1337","udp%3A%2F%2Ftracker.coppersurfer.tk%3A6969","udp%3A%2F%2Fexodus.desync.com%3A6969"],"infoHash":"d5c66d6ef3aca13765cb815cbed639fd54c15c24","infoHashBuffer":{"type":"Buffer","data":[213,198,109,110,243,172,161,55,101,203,129,92,190,214,57,253,84,193,92,36]},"announce":[],"urlList":[]}}